<svg id="Capa_1" enable-background="new 0 0 512 512"  viewBox="0 0 512 512"  xmlns="http://www.w3.org/2000/svg"><g><path d="m482.168 383.594c-2.928-2.252-6.751-2.973-10.5-1.977l-41.61 11.055c-6.458 1.715-11.327 8.137-11.327 14.938v52.339c-3.356-1.412-7.099-2.205-11.046-2.205-14.362 0-26.047 10.451-26.047 23.297 0 12.847 11.685 23.298 26.047 23.298 14.361 0 26.046-10.451 26.046-23.298 0-.325 0-46.76 0-46.76l41.788-11.115c6.457-1.715 11.327-8.136 11.327-14.938v-14.759c0-3.99-1.705-7.588-4.678-9.875zm-74.483 105.744c-5.988 0-11.047-3.8-11.047-8.298 0-4.497 5.059-8.297 11.047-8.297 5.987 0 11.046 3.8 11.046 8.297-.001 4.498-5.059 8.298-11.046 8.298zm63.811-80.626-37.766 10.046-.005-11.074c.029-.157.207-.433.354-.561l37.767-10.033.004 11.061c-.029.158-.206.433-.354.561z"/><path d="m490.435 149.036c-1.879-3.691-6.396-5.159-10.086-3.281-3.691 1.879-5.16 6.395-3.281 10.086 26.668 52.392 26.668 137.64 0 190.031-1.879 3.691-.41 8.207 3.281 10.086 1.09.556 2.252.818 3.396.818 2.731 0 5.365-1.498 6.689-4.1 13.906-27.32 21.565-63.48 21.565-101.82s-7.658-74.5-21.564-101.82z"/><path d="m456.527 309.128c1.09.555 2.251.817 3.396.817 2.731 0 5.366-1.499 6.69-4.101 15.694-30.842 15.694-79.162 0-110.005-1.879-3.691-6.395-5.162-10.086-3.283s-5.161 6.395-3.283 10.086c13.524 26.578 13.524 69.822 0 96.399-1.878 3.692-.408 8.208 3.283 10.087z"/><path d="m386.923 119.919c-34.963-34.978-81.46-54.24-130.927-54.24-49.465 0-95.969 19.262-130.947 54.24-72.168 72.199-72.168 189.676.002 261.877 30.467 30.454 70.821 49.427 113.626 53.424 5.732.535 11.468.8 17.194.8 36.473 0 72.414-10.763 102.749-31.011 3.445-2.3 4.374-6.957 2.074-10.402-2.301-3.446-6.958-4.373-10.402-2.074-67.152 44.825-157.419 35.847-214.635-21.343-66.323-66.352-66.323-174.314-.001-240.665 32.143-32.144 74.88-49.846 120.339-49.846s88.188 17.701 120.318 49.846c66.351 66.352 66.351 174.312 0 240.663-2.929 2.93-2.929 7.678 0 10.607 2.93 2.928 7.678 2.928 10.607 0 72.2-72.199 72.2-189.677.003-261.876z"/><path d="m165.64 158.146c2.966-2.892 3.027-7.64.136-10.606-2.892-2.967-7.64-3.026-10.605-.136-28.131 27.42-43.624 64.155-43.624 103.438 0 79.654 64.802 144.457 144.454 144.457 79.651 0 144.453-64.803 144.453-144.457s-64.803-144.457-144.454-144.457c-25.437 0-50.46 6.715-72.366 19.419-3.583 2.078-4.803 6.668-2.725 10.251 2.079 3.583 6.669 4.804 10.25 2.726 19.622-11.381 42.043-17.396 64.84-17.396 71.381 0 129.453 58.074 129.453 129.458 0 71.383-58.072 129.457-129.453 129.457s-129.454-58.074-129.454-129.457c.001-35.204 13.885-68.124 39.095-92.697z"/><path d="m37.793 58.647 18.294 9.273 9.281 18.312c2.087 4.09 4.982 6.164 8.605 6.164h.021c2.497-.006 6.015-1.084 8.589-6.183l9.272-18.293 18.282-9.268c4.116-2.078 6.203-4.977 6.204-8.615 0-3.64-2.086-6.539-6.193-8.613l-18.293-9.272-9.268-18.285c-2.076-4.109-4.97-6.197-8.603-6.205-.006 0-.013 0-.019 0-2.495 0-6.004 1.07-8.608 6.172l-9.271 18.319-18.284 9.267c-5.108 2.581-6.186 6.099-6.191 8.596-.007 3.631 2.068 6.533 6.182 8.631zm27.265-14.225c1.424-.722 2.58-1.879 3.301-3.303l5.608-11.08 5.618 11.084c.721 1.423 1.876 2.578 3.299 3.299l11.076 5.614-11.077 5.615c-1.422.721-2.578 1.876-3.299 3.299l-5.614 11.076-5.613-11.076c-.721-1.423-1.876-2.578-3.299-3.299l-11.077-5.615z"/><path d="m394.469 73.039h7.464c4.143 0 7.5-3.357 7.5-7.5s-3.357-7.5-7.5-7.5h-7.464c-4.143 0-7.5 3.357-7.5 7.5s3.357 7.5 7.5 7.5z"/><path d="m435.378 73.039h7.464c4.143 0 7.5-3.357 7.5-7.5s-3.357-7.5-7.5-7.5h-7.464c-4.143 0-7.5 3.357-7.5 7.5s3.357 7.5 7.5 7.5z"/><path d="m418.655 97.227c4.143 0 7.5-3.357 7.5-7.5v-7.464c0-4.143-3.357-7.5-7.5-7.5s-7.5 3.357-7.5 7.5v7.464c0 4.142 3.358 7.5 7.5 7.5z"/><path d="m418.655 56.315c4.143 0 7.5-3.357 7.5-7.5v-7.464c0-4.143-3.357-7.5-7.5-7.5s-7.5 3.357-7.5 7.5v7.464c0 4.143 3.358 7.5 7.5 7.5z"/><path d="m117.531 428.674h-7.463c-4.142 0-7.5 3.357-7.5 7.5s3.358 7.5 7.5 7.5h7.463c4.142 0 7.5-3.357 7.5-7.5s-3.358-7.5-7.5-7.5z"/><path d="m76.622 428.674h-7.463c-4.142 0-7.5 3.357-7.5 7.5s3.358 7.5 7.5 7.5h7.463c4.142 0 7.5-3.357 7.5-7.5s-3.358-7.5-7.5-7.5z"/><path d="m93.345 404.459c-4.142 0-7.5 3.357-7.5 7.5v7.491c0 4.143 3.358 7.5 7.5 7.5s7.5-3.357 7.5-7.5v-7.491c0-4.143-3.358-7.5-7.5-7.5z"/><path d="m93.345 445.397c-4.142 0-7.5 3.357-7.5 7.5v7.463c0 4.143 3.358 7.5 7.5 7.5s7.5-3.357 7.5-7.5v-7.463c0-4.142-3.358-7.5-7.5-7.5z"/><path d="m286.962 239.314c-14.864 2.742-26.509 14.412-26.509 26.567 0 5.569 2.389 10.625 6.726 14.234 4.242 3.532 9.975 5.396 16.286 5.396 2.024 0 4.109-.192 6.223-.582 14.848-2.747 26.479-14.416 26.479-26.567v-64.845c0-.267-.015-.53-.042-.79-.209-3.447-1.76-6.627-4.358-8.81-2.902-2.44-6.833-3.443-10.808-2.752l-68.611 12.174c-7.069 1.234-12.607 7.66-12.607 14.628v63.18c-4.304-1.245-9.183-1.453-14.231-.519-14.865 2.742-26.51 14.412-26.51 26.567 0 5.569 2.389 10.625 6.725 14.234 4.243 3.532 9.976 5.396 16.287 5.396 2.023 0 4.108-.191 6.22-.582 14.865-2.742 26.51-14.412 26.51-26.567v-54.631l66.426-11.788v16.572c-4.299-1.242-9.167-1.448-14.206-.515zm0 30.866c-4.992.92-8.536-.219-10.188-1.592-.914-.761-1.321-1.596-1.321-2.706 0-4.339 6.086-10.313 14.231-11.817h.003c1.252-.231 2.412-.333 3.474-.333 3.158 0 5.447.896 6.681 1.921.916.762 1.324 1.598 1.324 2.71 0 4.337-6.076 10.313-14.204 11.817zm-81.453 31.314c-4.997.918-8.539-.219-10.188-1.592-.914-.761-1.321-1.596-1.321-2.706 0-4.339 6.086-10.313 14.231-11.817 1.257-.231 2.422-.333 3.488-.333 3.17 0 5.465.896 6.701 1.925.914.761 1.321 1.596 1.321 2.706-.001 4.339-6.087 10.313-14.232 11.817zm29.231-81.682v-11.536c.065-.072.155-.144.207-.162l66.219-11.749v11.659z"/><path d="m34.933 155.841c1.879-3.691.41-8.207-3.282-10.086-3.692-1.878-8.207-.411-10.086 3.281-13.906 27.32-21.565 63.481-21.565 101.82s7.659 74.5 21.565 101.82c1.324 2.602 3.958 4.1 6.69 4.1 1.145 0 2.307-.264 3.396-.818 3.691-1.879 5.161-6.395 3.282-10.086-26.668-52.392-26.668-137.64 0-190.031z"/><path d="m55.439 192.554c-3.694-1.875-8.208-.401-10.083 3.291-15.663 30.841-15.663 79.156 0 109.995 1.323 2.604 3.958 4.105 6.693 4.105 1.142 0 2.302-.263 3.39-.815 3.693-1.875 5.167-6.39 3.291-10.083-13.5-26.579-13.5-69.829 0-96.409 1.875-3.694.402-8.208-3.291-10.084z"/></g></svg>