<svg id="Capa_1" enable-background="new 0 0 512 512"  viewBox="0 0 512 512"  xmlns="http://www.w3.org/2000/svg"><g><circle cx="235.164" cy="38.83" r="10"/><path d="m397.591 307.491c-13.886 0-27.133 2.787-39.215 7.824.35-2.608.548-5.265.548-7.967v-297.348c0-3.085-1.424-5.997-3.858-7.892-2.435-1.895-5.605-2.56-8.598-1.802l-70.114 17.769c-5.353 1.356-8.594 6.796-7.237 12.15 1.356 5.354 6.793 8.594 12.15 7.236l57.658-14.611v95.193l-207.52 52.592v-95.192l62.571-15.858c5.354-1.357 8.594-6.797 7.237-12.15-1.357-5.354-6.798-8.596-12.15-7.236l-70.115 17.77c-4.437 1.124-7.544 5.117-7.544 9.693v252.845c-10.542-9.396-24.424-15.122-39.624-15.122-32.877 0-59.625 26.747-59.625 59.624s26.747 59.625 59.625 59.625 59.624-26.748 59.624-59.625v-173.741l207.52-52.592v124.169c-10.542-9.397-24.424-15.122-39.624-15.122-32.877 0-59.624 26.748-59.624 59.625s26.748 59.624 59.624 59.624c1.872 0 3.722-.098 5.55-.268-6.099 13.09-9.514 27.673-9.514 43.041 0 56.384 45.871 102.255 102.255 102.255 56.383 0 102.254-45.871 102.254-102.255 0-56.382-45.871-102.254-102.254-102.254zm-325.812 97.141c-21.849 0-39.625-17.775-39.625-39.625 0-21.849 17.775-39.624 39.625-39.624 21.849 0 39.624 17.775 39.624 39.624 0 21.85-17.775 39.625-39.624 39.625zm339.954 5.114 50.62-50.62c10.943 13.97 17.492 31.539 17.492 50.619 0 19.081-6.549 36.65-17.492 50.62zm36.478-64.762-50.62 50.62-50.62-50.62c13.97-10.943 31.539-17.492 50.62-17.492 19.081-.001 36.65 6.548 50.62 17.492zm-188.536-37.636c0-21.85 17.775-39.625 39.625-39.625 21.849 0 39.624 17.775 39.624 39.625 0 21.849-17.775 39.624-39.624 39.624-21.85 0-39.625-17.775-39.625-39.624zm73.153 51.778 50.62 50.62-50.62 50.62c-10.944-13.97-17.492-31.539-17.492-50.62s6.549-36.651 17.492-50.62zm14.143 115.382 50.62-50.62 50.62 50.62c-13.97 10.943-31.539 17.492-50.62 17.492s-36.65-6.549-50.62-17.492z"/></g></svg>